<?xml version="1.0" standalone="no"?>
<!DOCTYPE svg PUBLIC "-//W3C//DTD SVG 20010904//EN"
  "http://www.w3.org/TR/2001/REC-SVG-20010904/DTD/svg10.dtd">
<svg version="1.0" xmlns="http://www.w3.org/2000/svg"
  width="256.000000pt" height="256.000000pt" viewBox="0 0 256.000000 256.000000"
  preserveAspectRatio="xMidYMid meet">

<g transform="translate(0.000000,256.000000) scale(0.100000,-0.100000)"
fill="none" stroke="none"> 
<path d="M622 2310 c-64 -19 -110 -50 -172 -115 l-35 -37 120 60 c127 63 172
  81 162 65 -5 -9 43 -61 51 -55 1 1 16 -11 34 -28 17 -16 35 -30 41 -30 9 0
  106 -76 118 -93 4 -5 16 -7 27 -5 18 3 14 11 -36 63 -31 33 -85 86 -120 118
  -34 32 -60 63 -57 68 10 15 -66 9 -133 -11z" fill="#FFD700"/>  <path d="M840 2285 c0 -2 28 -25 63 -51 34 -26 82 -66 107 -90 185 -180 239
  -242 368 -426 75 -107 146 -207 158 -222 17 -24 28 -28 62 -28 23 0 52 3 65 7
  20 5 20 5 -3 -10 -14 -9 -18 -14 -9 -11 10 2 35 10 58 17 23 7 41 17 41 23 0
  18 -99 137 -249 300 -255 277 -397 401 -515 450 -41 17 -146 46 -146 41z" fill="#DAA520"/> <path d="M1970 1304 c-47 -13 -97 -27 -113 -30 -20 -5 -25 -10 -17 -19 8 -9
  25 -9 82 2 39 7 76 18 83 23 7 5 15 7 18 3 4 -3 7 1 7 11 0 9 4 15 9 12 5 -3
  11 1 15 9 3 8 4 15 3 14 -1 0 -40 -11 -87 -25z" fill="#FFD700"/> <path d="M2015 1165 c-409 -107 -1044 -435 -1372 -708 -127 -105 -171 -169
  -150 -214 23 -52 133 -54 367 -7 466 94 944 353 1268 689 124 128 174 203 155
  234 -15 23 -43 26 -43 4 0 -15 -2 -16 -10 -3 -8 13 -11 13 -19 1 -7 -11 -10
  -10 -18 4 -9 15 -18 5 -58 -59 -26 -42 -49 -76 -51 -76 -2 0 14 36 36 80 l40
  80 -27 0 c-16 -1 -68 -12 -118 -25z m-670 -335 c54 0 100 -35 116 -90 22 -73
  -41 -153 -119 -152 -52 1 -78 15 -102 55 -26 41 -25 93 1 136 11 18 17 36 14
  39 -3 3 5 11 17 18 13 7 24 9 26 3 2 -5 23 -9 47 -9z" fill="#DAA520"/> </g>
</svg>